<?xml version="1.0" encoding="utf-8"?>
<!-- Generator: Adobe Illustrator 19.1.0, SVG Export Plug-In . SVG Version: 6.00 Build 0)  -->
<svg version="1.1" id="Layer_1" xmlns="http://www.w3.org/2000/svg" xmlns:xlink="http://www.w3.org/1999/xlink" x="0px" y="0px"
	 viewBox="0 0 180 270" style="enable-background:new 0 0 180 270;" xml:space="preserve">
<style type="text/css">
	.st0{fill:#CE982B;}
	.st1{fill:#F4EB1F;}
	.st2{fill:#44C8F5;}
	.st3{fill:#BE2026;}
	.st4{fill:#B1B1B1;}
	.st5{fill:#475CAA;}
</style>
<g>
	<path class="st0" d="M61.6,150.5c0,0-56.6,21.2-56.2,36.9c0.5,15.7,14.2,5.6,14.2,5.6s-21.4,40.4-15.5,45.7
		c5.9,5.3,32.5-26,33.4-16.4s-3.9,33.9,2.4,33.9c6.3,0,24.6-31,24.6-31s3.1-8.6,4.6,9.1c1.6,17.7,9,17.8,18.5-1.5s19-57.5,19-57.5
		L61.6,150.5z"/>
	<path class="st1" d="M72.5,152.5c0,0-37.8,13.8-37.4,24.3c0.4,10.4,9.5,3.8,9.5,3.8s-14.2,26.8-10.2,30.3
		c4,3.5,21.6-17.2,22.3-10.7c0.7,6.4-2.5,22.5,1.7,22.5c4.2,0.1,16.3-20.5,16.3-20.5s2-5.7,3.1,6.1c1.1,11.8,6.1,11.9,12.4-0.9
		c6.3-12.8,12.5-38.1,12.5-38.1L72.5,152.5z"/>
	<g>
		<path class="st2" d="M49.1,155L172.6,3.3C172.6,3.3,48.7,46.7,49.1,155z"/>
		<path class="st2" d="M172.6,3.3l-63.1,185.1C201.5,131.4,172.6,3.3,172.6,3.3z"/>
	</g>
	<path class="st2" d="M172.6,3.3L46.9,153.8c0,0,28.9,1.1,64.7,35.9L172.6,3.3z"/>
	<circle cx="137.3" cy="67" r="26.8"/>
	<polyline class="st3" points="62.2,100.2 34.8,108.2 23.3,157.8 51.2,153.9 	"/>
	<line class="st4" x1="21.2" y1="159" x2="49.1" y2="155"/>
	<polyline class="st3" points="149.2,148.4 156.7,176 120.3,211.7 109.2,185.8 	"/>
	<circle class="st5" cx="137.3" cy="67" r="15"/>
</g>
</svg>
